<?xml version="1.0" encoding="utf-8"?>
<!-- Generator: Adobe Illustrator 21.0.2, SVG Export Plug-In . SVG Version: 6.00 Build 0)  -->
<svg version="1.1" id="Ebene_1" xmlns="http://www.w3.org/2000/svg" xmlns:xlink="http://www.w3.org/1999/xlink" x="0px" y="0px"
	 viewBox="0 0 231 54" style="enable-background:new 0 0 231 54;" xml:space="preserve">
<style type="text/css">
	.st0{clip-path:url(#SVGID_2_);}
	.st1{enable-background:new    ;}
</style>
<g id="wortmarke-mob" transform="translate(168 -172)">
	<g id="Gruppe_6" transform="translate(-203 147)">
		<g id="Gruppe_5" transform="translate(35 25)">
			<g>
				<defs>
					<rect id="SVGID_1_" width="50.4" height="51"/>
				</defs>
				<clipPath id="SVGID_2_">
					<use xlink:href="#SVGID_1_"  style="overflow:visible;"/>
				</clipPath>
				<g id="Gruppe_1" class="st0">
					<path id="Pfad_1" d="M49.9,0c0,1.5,0,2.9,0,4.3c0,0.2-0.3,0.3-0.5,0.4c-2.1,0.9-4.2,2-6.1,3.3c-3.6,2.4-6.2,5.6-7.2,9.9
						c-1.4,6.1,0.3,11.3,4.8,15.6c1.1,0.9,2.3,1.7,3.7,2.1c0-0.2,0-0.4,0-0.6c0-4,0-8,0-11.9c0-0.8,0-0.8,0.8-0.8h5v20.9
						c-0.1,0-0.3,0-0.4,0c-3.9-1-7.8-2.1-11.1-4.4c-5-3.2-8.4-8.5-9.2-14.4c-0.9-5.6,1-11.4,5.1-15.4c3.4-3.5,7.5-6.2,12.1-8
						C47.8,0.5,48.8,0.3,49.9,0"/>
					<path id="Pfad_2" d="M0,51v-4.6c0.5-0.1,1-0.2,1.5-0.4c3.6-0.7,6.3-3.6,6.9-7.1c0.3-1.3,0.4-2.7,0.4-4c0-6.7,0-13.3,0-20
						c0-4.1,0-8.3-0.1-12.4c0-0.9,0-0.9,0.9-0.9c1.5,0,3,0,4.5,0c0.6,0,0.7,0.2,0.7,0.7c0,8.6,0,17.2,0,25.7c0,2.7,0,5.4,0,8.1
						c0,3.4-1.2,6.7-3.4,9.4c-1.1,1.3-2.4,2.3-3.9,3.1c-2.1,1.1-4.4,1.9-6.8,2.3C0.5,51,0.3,51,0,51"/>
					<path id="Pfad_3" d="M30.6,1.7c-0.1,0.1-0.2,0.2-0.3,0.2c-3.1,2.1-5.4,5.2-6.7,8.7c-1.1,3.1-0.9,6.5,0.5,9.5
						c1.1,2.3,2.3,4.6,3.5,6.9c1,1.8,1.6,3.8,1.7,5.8c0.1,3.1-0.8,6.2-2.5,8.8C26,43,26,42.9,24.3,42.9c-1.8,0-3.6,0-5.4,0
						c-0.2,0-0.4,0-0.7,0c0.4-0.5,0.8-0.8,1.2-1.2c1.7-1.7,2.9-3.8,3.7-6c0.4-1.3,0.4-2.7-0.1-4c-1.1-2.5-2.2-5-3.3-7.5
						c-1.2-2.3-2-4.8-2.5-7.4c-0.6-4,0.3-8,2.5-11.3c0.8-1.2,1.6-2.3,2.5-3.4c0.2-0.2,0.5-0.4,0.8-0.4c2.4,0,4.8,0,7.1,0
						C30.3,1.6,30.5,1.6,30.6,1.7"/>
				</g>
			</g>
		</g>
	</g>
	<g class="st1">
		<path d="M-103,207.1c0.1,0,0.2,0,0.3,0c0.4,0,0.6,0.2,0.6,0.5v5.6c0,0.4-0.1,0.7-0.2,1c-0.1,0.3-0.3,0.5-0.5,0.6
			c-0.2,0.2-0.4,0.3-0.7,0.3c-0.3,0.1-0.5,0.1-0.8,0.1c-0.5,0-0.9-0.1-1.1-0.2c-0.2-0.1-0.3-0.3-0.3-0.5c0-0.1,0-0.2,0.1-0.3
			c0.1-0.1,0.1-0.2,0.1-0.2c0.1,0.1,0.3,0.1,0.5,0.2c0.2,0.1,0.4,0.1,0.6,0.1c0.4,0,0.7-0.1,0.9-0.3s0.3-0.5,0.3-0.9v-5.9
			C-103.2,207.1-103.1,207.1-103,207.1z"/>
		<path d="M-100,209c0,0,0.1,0,0.2-0.1c0.1,0,0.2,0,0.3,0c0.4,0,0.5,0.2,0.5,0.5v3.3c0,0.6,0.1,1,0.4,1.2c0.3,0.2,0.7,0.4,1.2,0.4
			c0.3,0,0.6,0,0.9-0.1c0.2-0.1,0.4-0.1,0.6-0.2v-5c0,0,0.1,0,0.2-0.1c0.1,0,0.2,0,0.3,0c0.4,0,0.6,0.2,0.6,0.5v4.5
			c0,0.2,0,0.3-0.1,0.4c0,0.1-0.2,0.2-0.3,0.3c-0.2,0.1-0.5,0.2-0.8,0.3c-0.4,0.1-0.8,0.2-1.3,0.2c-0.9,0-1.5-0.2-2-0.6
			c-0.5-0.4-0.7-1-0.7-1.8V209z"/>
		<path d="M-91.9,215c-0.1,0-0.2,0-0.3,0c-0.4,0-0.6-0.2-0.6-0.5v-8c0,0,0.1,0,0.2-0.1c0.1,0,0.2,0,0.3,0c0.4,0,0.6,0.2,0.6,0.5v8
			C-91.8,215-91.8,215-91.9,215z"/>
		<path d="M-89.7,207.1c0-0.2,0.1-0.3,0.2-0.5c0.1-0.1,0.3-0.2,0.5-0.2c0.2,0,0.4,0.1,0.5,0.2c0.1,0.1,0.2,0.3,0.2,0.5
			c0,0.2-0.1,0.3-0.2,0.5c-0.1,0.1-0.3,0.2-0.5,0.2c-0.2,0-0.4-0.1-0.5-0.2C-89.7,207.4-89.7,207.3-89.7,207.1z M-88.5,215
			c0,0-0.1,0-0.2,0.1c-0.1,0-0.2,0-0.3,0c-0.4,0-0.6-0.2-0.6-0.5V209c0,0,0.1,0,0.2-0.1c0.1,0,0.2,0,0.3,0c0.4,0,0.5,0.2,0.5,0.5
			V215z"/>
		<path d="M-86.5,209c0,0,0.1,0,0.2-0.1c0.1,0,0.2,0,0.3,0c0.4,0,0.5,0.2,0.5,0.5v3.3c0,0.6,0.1,1,0.4,1.2c0.3,0.2,0.7,0.4,1.2,0.4
			c0.3,0,0.6,0,0.9-0.1c0.2-0.1,0.4-0.1,0.6-0.2v-5c0,0,0.1,0,0.2-0.1c0.1,0,0.2,0,0.3,0c0.4,0,0.6,0.2,0.6,0.5v4.5
			c0,0.2,0,0.3-0.1,0.4c0,0.1-0.2,0.2-0.3,0.3c-0.2,0.1-0.5,0.2-0.8,0.3c-0.4,0.1-0.8,0.2-1.3,0.2c-0.9,0-1.5-0.2-2-0.6
			c-0.5-0.4-0.7-1-0.7-1.8V209z"/>
		<path d="M-75.1,213.4c0,0.6-0.2,1-0.6,1.3c-0.4,0.3-1,0.5-1.8,0.5c-0.3,0-0.6,0-0.9-0.1c-0.3-0.1-0.5-0.1-0.7-0.2
			c-0.2-0.1-0.3-0.2-0.5-0.3c-0.1-0.1-0.2-0.2-0.2-0.4c0-0.1,0-0.2,0.1-0.3c0.1-0.1,0.1-0.2,0.3-0.2c0.2,0.2,0.5,0.3,0.8,0.5
			c0.3,0.1,0.7,0.2,1.1,0.2c0.9,0,1.4-0.3,1.4-0.9c0-0.5-0.3-0.8-0.9-1l-1.1-0.3c-0.5-0.1-0.9-0.3-1.2-0.6c-0.2-0.3-0.4-0.6-0.4-1
			c0-0.2,0-0.4,0.1-0.7s0.2-0.4,0.4-0.5s0.4-0.3,0.7-0.4c0.3-0.1,0.6-0.1,1-0.1c0.6,0,1.1,0.1,1.5,0.3c0.4,0.2,0.6,0.4,0.6,0.6
			c0,0.1,0,0.2-0.1,0.3c-0.1,0.1-0.1,0.2-0.2,0.2c-0.2-0.1-0.4-0.2-0.7-0.3c-0.3-0.1-0.6-0.2-1-0.2s-0.7,0.1-0.9,0.2
			s-0.3,0.4-0.3,0.6c0,0.2,0.1,0.4,0.2,0.5s0.3,0.2,0.6,0.3l0.9,0.2c0.6,0.1,1,0.4,1.3,0.7C-75.3,212.5-75.1,212.9-75.1,213.4z"/>
		<path d="M-68.6,214.3c0.6,0,1-0.1,1.3-0.4c0.3-0.3,0.4-0.6,0.4-1c0-0.4-0.1-0.7-0.3-0.9c-0.2-0.2-0.6-0.4-1.1-0.6l-1.1-0.3
			c-0.6-0.2-1-0.4-1.3-0.7c-0.3-0.3-0.5-0.8-0.5-1.3c0-0.3,0.1-0.6,0.2-0.9c0.1-0.3,0.3-0.5,0.5-0.7s0.5-0.3,0.8-0.4
			s0.7-0.1,1.1-0.1c0.3,0,0.7,0,1,0.1c0.3,0.1,0.6,0.1,0.8,0.2c0.2,0.1,0.4,0.2,0.5,0.3c0.1,0.1,0.2,0.2,0.2,0.4
			c0,0.1,0,0.2-0.1,0.3c-0.1,0.1-0.1,0.2-0.2,0.2c-0.2-0.2-0.5-0.3-0.9-0.5c-0.4-0.1-0.8-0.2-1.2-0.2c-0.5,0-0.9,0.1-1.2,0.3
			c-0.3,0.2-0.4,0.5-0.4,0.9c0,0.3,0.1,0.6,0.3,0.7c0.2,0.2,0.6,0.4,1,0.5l0.8,0.2c0.7,0.2,1.2,0.5,1.6,0.8c0.4,0.4,0.6,0.9,0.6,1.5
			c0,0.7-0.2,1.2-0.7,1.7c-0.5,0.4-1.2,0.6-2.1,0.6c-0.4,0-0.8,0-1.1-0.1c-0.3-0.1-0.6-0.2-0.8-0.3s-0.4-0.2-0.5-0.4
			c-0.1-0.1-0.2-0.3-0.2-0.4c0-0.1,0-0.3,0.1-0.4c0.1-0.1,0.2-0.2,0.3-0.2c0.1,0.1,0.2,0.2,0.4,0.3s0.3,0.2,0.5,0.3
			c0.2,0.1,0.4,0.1,0.6,0.2C-69.1,214.3-68.9,214.3-68.6,214.3z"/>
		<path d="M-61.6,215.2c-0.3,0-0.6,0-0.9-0.1c-0.3-0.1-0.5-0.2-0.7-0.2v2.5c0,0-0.1,0-0.2,0.1c-0.1,0-0.2,0-0.3,0
			c-0.4,0-0.6-0.2-0.6-0.5v-6.9c0-0.2,0-0.3,0.1-0.4c0.1-0.1,0.2-0.2,0.4-0.3c0.2-0.1,0.5-0.2,0.8-0.4c0.3-0.1,0.7-0.2,1.1-0.2
			c0.4,0,0.8,0.1,1.2,0.2c0.4,0.1,0.7,0.3,1,0.6c0.3,0.3,0.5,0.6,0.7,1c0.2,0.4,0.2,0.9,0.2,1.4c0,0.5-0.1,1-0.2,1.4
			c-0.1,0.4-0.3,0.7-0.6,1c-0.3,0.3-0.6,0.5-0.9,0.6S-61.2,215.2-61.6,215.2z M-61.8,214.3c0.6,0,1.1-0.2,1.5-0.6
			c0.4-0.4,0.6-1,0.6-1.8c0-0.4-0.1-0.8-0.2-1.1s-0.3-0.5-0.4-0.7c-0.2-0.2-0.4-0.3-0.6-0.4c-0.2-0.1-0.5-0.1-0.8-0.1
			c-0.3,0-0.6,0-0.8,0.1c-0.2,0.1-0.4,0.2-0.6,0.3v3.8c0.2,0.1,0.4,0.2,0.6,0.3C-62.3,214.3-62.1,214.3-61.8,214.3z"/>
		<path d="M-57.2,207.1c0-0.2,0.1-0.3,0.2-0.5c0.1-0.1,0.3-0.2,0.5-0.2c0.2,0,0.4,0.1,0.5,0.2c0.1,0.1,0.2,0.3,0.2,0.5
			c0,0.2-0.1,0.3-0.2,0.5c-0.1,0.1-0.3,0.2-0.5,0.2c-0.2,0-0.4-0.1-0.5-0.2C-57.1,207.4-57.2,207.3-57.2,207.1z M-56,215
			c0,0-0.1,0-0.2,0.1c-0.1,0-0.2,0-0.3,0c-0.4,0-0.6-0.2-0.6-0.5V209c0,0,0.1,0,0.2-0.1c0.1,0,0.2,0,0.3,0c0.4,0,0.5,0.2,0.5,0.5
			V215z"/>
		<path d="M-53.2,212.6c0.2,1.1,1,1.7,2.2,1.7c0.4,0,0.7-0.1,1-0.2s0.5-0.3,0.7-0.4c0.2,0.1,0.3,0.3,0.3,0.5c0,0.1-0.1,0.2-0.2,0.4
			s-0.3,0.2-0.4,0.3c-0.2,0.1-0.4,0.2-0.6,0.2s-0.5,0.1-0.8,0.1c-1,0-1.8-0.3-2.4-0.8c-0.6-0.5-0.9-1.3-0.9-2.4
			c0-0.5,0.1-0.9,0.2-1.3s0.3-0.7,0.6-1c0.3-0.3,0.6-0.5,0.9-0.6c0.4-0.1,0.7-0.2,1.2-0.2c0.4,0,0.8,0.1,1.1,0.2
			c0.3,0.1,0.6,0.3,0.9,0.6c0.2,0.2,0.4,0.5,0.6,0.8c0.1,0.3,0.2,0.7,0.2,1.1c0,0.2,0,0.3-0.1,0.4c-0.1,0.1-0.2,0.1-0.4,0.1
			L-53.2,212.6z M-51.4,209.7c-0.5,0-1,0.2-1.3,0.6s-0.5,0.9-0.5,1.6l3.6-0.5c0-0.5-0.2-0.9-0.5-1.2
			C-50.5,209.8-50.9,209.7-51.4,209.7z"/>
		<path d="M-43.2,214.4c-0.1,0.1-0.3,0.2-0.6,0.3c-0.3,0.1-0.6,0.1-0.9,0.1c-0.4,0-0.7-0.1-1.1-0.2s-0.6-0.3-0.9-0.5
			c-0.3-0.2-0.5-0.5-0.6-0.9c-0.2-0.4-0.2-0.8-0.2-1.4c0-0.5,0.1-0.9,0.2-1.3c0.1-0.4,0.4-0.7,0.6-0.9s0.6-0.4,0.9-0.6
			c0.4-0.1,0.8-0.2,1.2-0.2c0.4,0,0.8,0,1.1,0.1s0.6,0.2,0.8,0.4c0.1,0.1,0.2,0.2,0.3,0.3s0.1,0.2,0.1,0.4v5.2
			c0,0.4-0.1,0.8-0.2,1.1c-0.1,0.3-0.3,0.5-0.6,0.7c-0.3,0.2-0.6,0.3-0.9,0.4s-0.7,0.1-1.1,0.1c-0.4,0-0.8,0-1.1-0.1
			s-0.5-0.2-0.6-0.2c-0.3-0.1-0.4-0.3-0.4-0.6c0-0.1,0-0.2,0.1-0.3c0.1-0.1,0.1-0.1,0.2-0.2c0.2,0.1,0.4,0.3,0.8,0.4
			c0.3,0.1,0.7,0.2,1.1,0.2c0.6,0,1-0.1,1.3-0.4c0.3-0.2,0.5-0.6,0.5-1.2V214.4z M-44.6,214c0.3,0,0.6-0.1,0.9-0.2
			c0.2-0.1,0.4-0.2,0.6-0.4V210c-0.1-0.1-0.3-0.2-0.6-0.3c-0.2-0.1-0.5-0.1-0.8-0.1c-0.6,0-1.1,0.2-1.4,0.5
			c-0.4,0.4-0.5,0.9-0.5,1.6c0,0.4,0,0.7,0.1,1c0.1,0.3,0.2,0.5,0.4,0.7c0.2,0.2,0.4,0.3,0.6,0.4C-45.1,213.9-44.9,214-44.6,214z"/>
		<path d="M-39.5,212.6c0.2,1.1,1,1.7,2.2,1.7c0.4,0,0.7-0.1,1-0.2c0.3-0.1,0.5-0.3,0.7-0.4c0.2,0.1,0.3,0.3,0.3,0.5
			c0,0.1-0.1,0.2-0.2,0.4c-0.1,0.1-0.3,0.2-0.4,0.3c-0.2,0.1-0.4,0.2-0.7,0.2c-0.2,0.1-0.5,0.1-0.8,0.1c-1,0-1.8-0.3-2.4-0.8
			c-0.6-0.5-0.9-1.3-0.9-2.4c0-0.5,0.1-0.9,0.2-1.3s0.3-0.7,0.6-1s0.6-0.5,0.9-0.6c0.4-0.1,0.7-0.2,1.2-0.2c0.4,0,0.7,0.1,1.1,0.2
			c0.3,0.1,0.6,0.3,0.9,0.6s0.4,0.5,0.6,0.8c0.1,0.3,0.2,0.7,0.2,1.1c0,0.2,0,0.3-0.1,0.4c-0.1,0.1-0.2,0.1-0.4,0.1L-39.5,212.6z
			 M-37.7,209.7c-0.5,0-1,0.2-1.3,0.6c-0.3,0.4-0.5,0.9-0.5,1.6l3.6-0.5c0-0.5-0.2-0.9-0.5-1.2S-37.2,209.7-37.7,209.7z"/>
		<path d="M-32.5,215c-0.1,0-0.2,0-0.3,0c-0.4,0-0.6-0.2-0.6-0.5v-8c0,0,0.1,0,0.2-0.1c0.1,0,0.2,0,0.3,0c0.4,0,0.6,0.2,0.6,0.5v8
			C-32.4,215-32.5,215-32.5,215z"/>
		<path d="M-27.6,208.8c0.4,0,0.8,0.1,1.1,0.2c0.3,0.1,0.6,0.3,0.9,0.6c0.3,0.3,0.5,0.6,0.6,1c0.1,0.4,0.2,0.9,0.2,1.4
			c0,0.5-0.1,1-0.2,1.4c-0.1,0.4-0.4,0.7-0.6,1c-0.3,0.3-0.6,0.5-1,0.6s-0.8,0.2-1.2,0.2c-0.4,0-0.8,0-1.2-0.1
			c-0.3-0.1-0.6-0.2-0.8-0.3c-0.2-0.1-0.3-0.2-0.4-0.3s-0.1-0.3-0.1-0.4v-7.3c0,0,0.1,0,0.2-0.1s0.2,0,0.3,0c0.4,0,0.5,0.2,0.5,0.5
			v2.3c0.2-0.1,0.4-0.2,0.7-0.3C-28.3,208.9-28,208.8-27.6,208.8z M-27.8,209.7c-0.3,0-0.6,0.1-0.8,0.2s-0.5,0.2-0.6,0.4v3.7
			c0.1,0.1,0.3,0.2,0.6,0.3c0.2,0.1,0.5,0.1,0.9,0.1c0.3,0,0.6,0,0.8-0.1s0.4-0.2,0.6-0.4c0.2-0.2,0.3-0.4,0.4-0.7
			c0.1-0.3,0.1-0.6,0.1-1s0-0.7-0.1-1c-0.1-0.3-0.2-0.5-0.4-0.7c-0.2-0.2-0.4-0.3-0.6-0.4S-27.5,209.7-27.8,209.7z"/>
		<path d="M-22.4,212.6c0.2,1.1,1,1.7,2.2,1.7c0.4,0,0.7-0.1,1-0.2s0.5-0.3,0.7-0.4c0.2,0.1,0.3,0.3,0.3,0.5c0,0.1-0.1,0.2-0.2,0.4
			s-0.3,0.2-0.4,0.3c-0.2,0.1-0.4,0.2-0.7,0.2c-0.2,0.1-0.5,0.1-0.8,0.1c-1,0-1.8-0.3-2.4-0.8c-0.6-0.5-0.9-1.3-0.9-2.4
			c0-0.5,0.1-0.9,0.2-1.3c0.1-0.4,0.3-0.7,0.6-1s0.6-0.5,0.9-0.6c0.4-0.1,0.7-0.2,1.2-0.2c0.4,0,0.7,0.1,1.1,0.2
			c0.3,0.1,0.6,0.3,0.9,0.6s0.4,0.5,0.6,0.8c0.1,0.3,0.2,0.7,0.2,1.1c0,0.2,0,0.3-0.1,0.4c-0.1,0.1-0.2,0.1-0.4,0.1L-22.4,212.6z
			 M-20.6,209.7c-0.5,0-1,0.2-1.3,0.6s-0.5,0.9-0.5,1.6l3.6-0.5c0-0.5-0.2-0.9-0.5-1.2C-19.7,209.8-20.1,209.7-20.6,209.7z"/>
		<path d="M-15.4,215c0,0-0.1,0-0.2,0.1c-0.1,0-0.2,0-0.3,0c-0.4,0-0.6-0.2-0.6-0.5v-4.4c0-0.2,0-0.4,0.1-0.5
			c0.1-0.1,0.2-0.2,0.4-0.3c0.2-0.1,0.5-0.3,0.9-0.4c0.4-0.1,0.8-0.2,1.3-0.2c0.7,0,1,0.2,1,0.5c0,0.1,0,0.2,0,0.2
			c0,0.1-0.1,0.1-0.1,0.2c-0.1,0-0.2,0-0.3-0.1c-0.1,0-0.3,0-0.4,0c-0.4,0-0.8,0-1.1,0.1c-0.3,0.1-0.6,0.2-0.8,0.3V215z"/>
		<path d="M-7.6,214.4c-0.1,0.1-0.3,0.2-0.6,0.3c-0.3,0.1-0.6,0.1-0.9,0.1c-0.4,0-0.7-0.1-1.1-0.2s-0.6-0.3-0.9-0.5
			c-0.3-0.2-0.5-0.5-0.6-0.9c-0.2-0.4-0.2-0.8-0.2-1.4c0-0.5,0.1-0.9,0.2-1.3c0.1-0.4,0.4-0.7,0.6-0.9c0.3-0.3,0.6-0.4,0.9-0.6
			c0.4-0.1,0.8-0.2,1.2-0.2c0.4,0,0.8,0,1.1,0.1c0.3,0.1,0.6,0.2,0.8,0.4c0.1,0.1,0.2,0.2,0.3,0.3s0.1,0.2,0.1,0.4v5.2
			c0,0.4-0.1,0.8-0.2,1.1s-0.3,0.5-0.6,0.7c-0.3,0.2-0.6,0.3-0.9,0.4c-0.3,0.1-0.7,0.1-1.1,0.1c-0.4,0-0.8,0-1.1-0.1
			c-0.3-0.1-0.5-0.2-0.6-0.2c-0.3-0.1-0.4-0.3-0.4-0.6c0-0.1,0-0.2,0.1-0.3c0.1-0.1,0.1-0.1,0.2-0.2c0.2,0.1,0.4,0.3,0.8,0.4
			c0.3,0.1,0.7,0.2,1.1,0.2c0.6,0,1-0.1,1.3-0.4s0.5-0.6,0.5-1.2V214.4z M-9,214c0.3,0,0.6-0.1,0.9-0.2s0.4-0.2,0.6-0.4V210
			c-0.1-0.1-0.3-0.2-0.6-0.3c-0.2-0.1-0.5-0.1-0.8-0.1c-0.6,0-1.1,0.2-1.4,0.5c-0.4,0.4-0.5,0.9-0.5,1.6c0,0.4,0,0.7,0.1,1
			c0.1,0.3,0.2,0.5,0.4,0.7c0.2,0.2,0.4,0.3,0.6,0.4C-9.5,213.9-9.2,214-9,214z"/>
		<path d="M4.4,214.1c0,0.2,0,0.3-0.1,0.4c-0.1,0.1-0.2,0.2-0.4,0.3c-0.2,0.1-0.5,0.2-0.9,0.3c-0.4,0.1-0.8,0.1-1.2,0.1
			c-0.6,0-1.2-0.1-1.7-0.2c-0.5-0.2-0.9-0.4-1.3-0.8s-0.6-0.8-0.8-1.3s-0.3-1.1-0.3-1.8c0-0.7,0.1-1.3,0.3-1.8
			c0.2-0.5,0.5-1,0.9-1.3c0.4-0.3,0.8-0.6,1.3-0.8c0.5-0.2,1-0.3,1.5-0.3c0.4,0,0.7,0,1,0.1c0.3,0.1,0.6,0.1,0.8,0.2
			s0.4,0.2,0.5,0.3c0.1,0.1,0.2,0.2,0.2,0.4s0,0.2-0.1,0.3c-0.1,0.1-0.2,0.2-0.2,0.2c-0.2-0.2-0.5-0.3-0.8-0.4
			c-0.3-0.1-0.7-0.2-1.2-0.2c-0.4,0-0.8,0.1-1.2,0.2s-0.7,0.3-0.9,0.6c-0.3,0.3-0.5,0.6-0.6,1c-0.1,0.4-0.2,0.9-0.2,1.4
			c0,0.6,0.1,1,0.2,1.5c0.2,0.4,0.4,0.7,0.6,1s0.6,0.5,1,0.6c0.4,0.1,0.8,0.2,1.2,0.2c0.3,0,0.6,0,0.9-0.1c0.3-0.1,0.5-0.1,0.7-0.2
			v-2.4h-2c0,0-0.1-0.1-0.1-0.2s0-0.2,0-0.2c0-0.1,0-0.3,0.1-0.3c0.1-0.1,0.2-0.1,0.3-0.1h2.2c0.2,0,0.3,0.1,0.4,0.1
			c0.1,0.1,0.2,0.2,0.2,0.4V214.1z"/>
		<path d="M7.3,213.7c-0.1-0.2-0.2-0.5-0.4-0.8c-0.1-0.3-0.3-0.7-0.5-1.1c-0.2-0.4-0.3-0.8-0.5-1.3c-0.2-0.4-0.3-0.9-0.5-1.4
			c0.1-0.1,0.1-0.2,0.2-0.2s0.2-0.1,0.3-0.1c0.1,0,0.3,0,0.4,0.1s0.2,0.2,0.2,0.4c0.3,0.7,0.5,1.5,0.8,2.2c0.3,0.7,0.6,1.5,1,2.2
			h0.1c0.1-0.3,0.3-0.6,0.4-1s0.3-0.8,0.4-1.2s0.3-0.9,0.4-1.3c0.1-0.4,0.2-0.9,0.3-1.3c0.1,0,0.1,0,0.2-0.1c0.1,0,0.2,0,0.2,0
			c0.1,0,0.3,0,0.4,0.1c0.1,0.1,0.1,0.2,0.1,0.3c0,0.2-0.1,0.5-0.2,0.9c-0.1,0.5-0.3,1-0.5,1.5c-0.2,0.6-0.4,1.2-0.7,1.8
			c-0.3,0.6-0.5,1.1-0.8,1.6c-0.4,0.7-0.8,1.3-1.1,1.7c-0.3,0.4-0.6,0.6-0.9,0.6c-0.2,0-0.4-0.1-0.5-0.2c-0.1-0.1-0.2-0.2-0.2-0.4
			c0.1-0.1,0.3-0.3,0.5-0.5c0.2-0.2,0.3-0.4,0.5-0.6c0.2-0.2,0.3-0.4,0.5-0.7c0.2-0.2,0.3-0.5,0.4-0.7c-0.1,0-0.3-0.1-0.4-0.2
			C7.6,214.2,7.5,214,7.3,213.7z"/>
		<path d="M19.6,210c-0.2-0.2-0.6-0.3-1-0.3c-0.6,0-1.1,0.2-1.5,0.6c0.1,0.2,0.1,0.4,0.1,0.6v4.1c0,0-0.1,0-0.2,0.1s-0.2,0-0.3,0
			c-0.4,0-0.6-0.2-0.6-0.5v-3.7c0-0.4-0.1-0.7-0.4-0.9c-0.2-0.2-0.6-0.3-1-0.3c-0.3,0-0.5,0-0.8,0.1c-0.2,0.1-0.5,0.2-0.6,0.3v4.9
			c0,0-0.1,0-0.2,0.1s-0.2,0-0.3,0c-0.4,0-0.6-0.2-0.6-0.5v-4.4c0-0.2,0-0.3,0.1-0.4s0.2-0.2,0.4-0.4c0.2-0.1,0.5-0.3,0.9-0.4
			s0.7-0.2,1.1-0.2c0.4,0,0.8,0.1,1.1,0.2c0.3,0.1,0.6,0.3,0.8,0.5c0.2-0.2,0.5-0.4,0.8-0.5c0.3-0.1,0.7-0.2,1.2-0.2
			c0.7,0,1.3,0.2,1.7,0.5c0.4,0.3,0.6,0.8,0.6,1.5v4.1c0,0-0.1,0-0.2,0.1c-0.1,0-0.2,0-0.3,0c-0.4,0-0.6-0.2-0.6-0.5v-3.7
			C20,210.5,19.9,210.2,19.6,210z"/>
		<path d="M26.7,210c-0.3-0.2-0.6-0.3-1.1-0.3c-0.3,0-0.7,0-0.9,0.1c-0.3,0.1-0.5,0.2-0.7,0.3v4.9c0,0-0.1,0-0.2,0.1
			c-0.1,0-0.2,0-0.3,0c-0.4,0-0.6-0.2-0.6-0.5v-4.4c0-0.2,0-0.3,0.1-0.4c0.1-0.1,0.2-0.2,0.4-0.3c0.2-0.1,0.5-0.3,0.9-0.4
			c0.4-0.1,0.8-0.2,1.3-0.2c0.8,0,1.4,0.2,1.9,0.5s0.7,0.9,0.7,1.7v3.9c0,0-0.1,0-0.2,0.1s-0.2,0-0.3,0c-0.4,0-0.6-0.2-0.6-0.5v-3.5
			C27.1,210.6,27,210.2,26.7,210z"/>
		<path d="M32.3,208.8c0.8,0,1.4,0.2,1.8,0.5s0.7,0.9,0.7,1.6v3.1c0,0.2,0,0.3-0.1,0.4c-0.1,0.1-0.2,0.2-0.3,0.3
			c-0.2,0.1-0.5,0.2-0.8,0.3c-0.3,0.1-0.7,0.1-1.2,0.1c-0.8,0-1.4-0.2-1.9-0.5c-0.4-0.3-0.7-0.8-0.7-1.4c0-0.6,0.2-1,0.6-1.3
			s0.9-0.5,1.6-0.5l1.8-0.2v-0.4c0-0.4-0.1-0.7-0.4-0.9s-0.6-0.3-1.1-0.3c-0.4,0-0.7,0.1-1,0.2c-0.3,0.1-0.6,0.2-0.9,0.4
			c-0.1-0.1-0.1-0.1-0.2-0.2c-0.1-0.1-0.1-0.2-0.1-0.3c0-0.1,0-0.2,0.1-0.3s0.2-0.2,0.3-0.2c0.2-0.1,0.5-0.2,0.8-0.3
			C31.6,208.9,31.9,208.8,32.3,208.8z M32.3,214.3c0.4,0,0.7,0,0.9-0.1c0.2-0.1,0.4-0.1,0.5-0.2v-1.9l-1.6,0.2c-0.5,0-0.8,0.1-1,0.3
			s-0.3,0.4-0.3,0.7c0,0.3,0.1,0.6,0.4,0.8S31.8,214.3,32.3,214.3z"/>
		<path d="M40.8,213.4c0,0.6-0.2,1-0.6,1.3c-0.4,0.3-1,0.5-1.8,0.5c-0.3,0-0.6,0-0.9-0.1c-0.3-0.1-0.5-0.1-0.7-0.2
			c-0.2-0.1-0.3-0.2-0.5-0.3c-0.1-0.1-0.2-0.2-0.2-0.4c0-0.1,0-0.2,0.1-0.3c0.1-0.1,0.1-0.2,0.3-0.2c0.2,0.2,0.5,0.3,0.8,0.5
			c0.3,0.1,0.7,0.2,1.1,0.2c0.9,0,1.4-0.3,1.4-0.9c0-0.5-0.3-0.8-0.9-1l-1.1-0.3c-0.5-0.1-0.9-0.3-1.2-0.6c-0.2-0.3-0.4-0.6-0.4-1
			c0-0.2,0-0.4,0.1-0.7c0.1-0.2,0.2-0.4,0.4-0.5s0.4-0.3,0.7-0.4c0.3-0.1,0.6-0.1,1-0.1c0.6,0,1.1,0.1,1.5,0.3
			c0.4,0.2,0.6,0.4,0.6,0.6c0,0.1,0,0.2-0.1,0.3c-0.1,0.1-0.1,0.2-0.2,0.2c-0.2-0.1-0.4-0.2-0.7-0.3c-0.3-0.1-0.6-0.2-1-0.2
			s-0.7,0.1-0.9,0.2s-0.3,0.4-0.3,0.6c0,0.2,0.1,0.4,0.2,0.5s0.3,0.2,0.7,0.3l0.9,0.2c0.6,0.1,1,0.4,1.3,0.7S40.8,212.9,40.8,213.4z
			"/>
		<path d="M42.3,207.1c0-0.2,0.1-0.3,0.2-0.5c0.1-0.1,0.3-0.2,0.5-0.2s0.4,0.1,0.5,0.2c0.1,0.1,0.2,0.3,0.2,0.5
			c0,0.2-0.1,0.3-0.2,0.5s-0.3,0.2-0.5,0.2s-0.4-0.1-0.5-0.2C42.4,207.4,42.3,207.3,42.3,207.1z M43.5,215c0,0-0.1,0-0.2,0.1
			c-0.1,0-0.2,0-0.3,0c-0.4,0-0.6-0.2-0.6-0.5V209c0,0,0.1,0,0.2-0.1c0.1,0,0.2,0,0.3,0c0.4,0,0.5,0.2,0.5,0.5V215z"/>
		<path d="M45.6,209c0,0,0.1,0,0.2-0.1c0.1,0,0.2,0,0.3,0c0.4,0,0.5,0.2,0.5,0.5v3.3c0,0.6,0.1,1,0.4,1.2c0.3,0.2,0.7,0.4,1.2,0.4
			c0.3,0,0.6,0,0.9-0.1c0.2-0.1,0.4-0.1,0.6-0.2v-5c0,0,0.1,0,0.2-0.1c0.1,0,0.2,0,0.3,0c0.4,0,0.6,0.2,0.6,0.5v4.5
			c0,0.2,0,0.3-0.1,0.4c0,0.1-0.2,0.2-0.3,0.3c-0.2,0.1-0.5,0.2-0.8,0.3c-0.4,0.1-0.8,0.2-1.3,0.2c-0.9,0-1.5-0.2-2-0.6
			c-0.5-0.4-0.7-1-0.7-1.8V209z"/>
		<path d="M60,210c-0.2-0.2-0.6-0.3-1-0.3c-0.6,0-1.1,0.2-1.5,0.6c0.1,0.2,0.1,0.4,0.1,0.6v4.1c0,0-0.1,0-0.2,0.1
			c-0.1,0-0.2,0-0.3,0c-0.4,0-0.6-0.2-0.6-0.5v-3.7c0-0.4-0.1-0.7-0.4-0.9s-0.6-0.3-1-0.3c-0.3,0-0.5,0-0.8,0.1
			c-0.2,0.1-0.5,0.2-0.6,0.3v4.9c0,0-0.1,0-0.2,0.1c-0.1,0-0.2,0-0.3,0c-0.4,0-0.6-0.2-0.6-0.5v-4.4c0-0.2,0-0.3,0.1-0.4
			c0.1-0.1,0.2-0.2,0.4-0.4c0.2-0.1,0.5-0.3,0.9-0.4s0.7-0.2,1.1-0.2c0.4,0,0.8,0.1,1.1,0.2c0.3,0.1,0.6,0.3,0.8,0.5
			c0.2-0.2,0.5-0.4,0.8-0.5c0.3-0.1,0.7-0.2,1.2-0.2c0.7,0,1.3,0.2,1.7,0.5c0.4,0.3,0.6,0.8,0.6,1.5v4.1c0,0-0.1,0-0.2,0.1
			c-0.1,0-0.2,0-0.3,0c-0.4,0-0.6-0.2-0.6-0.5v-3.7C60.3,210.5,60.2,210.2,60,210z"/>
	</g>
</g>
</svg>
