<?xml version="1.0" standalone="no"?>
<!DOCTYPE svg PUBLIC "-//W3C//DTD SVG 20010904//EN"
 "http://www.w3.org/TR/2001/REC-SVG-20010904/DTD/svg10.dtd">
<svg version="1.0" xmlns="http://www.w3.org/2000/svg"
 width="500.000000pt" height="500.000000pt" viewBox="0 0 500.000000 500.000000"
 preserveAspectRatio="xMidYMid meet">
<metadata>
Created by potrace 1.11, written by Peter Selinger 2001-2013
</metadata>
<g transform="translate(0.000000,500.000000) scale(0.100000,-0.100000)"
fill="#000000" stroke="none">
<path d="M3869 4090 c-449 -134 -937 -524 -1085 -868 -14 -31 -29 -66 -34 -77
-16 -33 -49 -163 -57 -223 -13 -96 -7 -310 11 -407 67 -353 260 -639 578 -853
117 -79 240 -137 413 -197 53 -18 242 -72 283 -80 l32 -7 0 666 0 666 -182 -2
-183 -3 -2 -410 c0 -225 -1 -415 -2 -422 -1 -15 -19 -10 -86 25 -111 57 -190
127 -289 259 -48 64 -124 199 -139 248 -45 151 -52 195 -51 335 1 310 120 568
354 768 107 92 219 163 393 252 l152 78 3 141 c1 78 -1 141 -5 140 -5 0 -51
-14 -104 -29z"/>
<path d="M1376 4011 c-3 -5 -6 -497 -6 -1093 1 -595 -2 -1112 -5 -1148 -24
-250 -138 -438 -316 -523 -41 -20 -87 -39 -104 -42 -16 -4 -54 -14 -82 -22
l-53 -14 0 -146 0 -145 38 6 c20 3 53 8 72 12 64 10 237 72 322 115 113 57
182 104 249 170 148 147 224 310 256 544 5 41 10 2256 5 2278 -4 15 -21 17
-188 17 -100 0 -185 -4 -188 -9z"/>
<path d="M2233 4005 c-24 -17 -136 -158 -178 -225 -104 -165 -163 -352 -169
-542 -7 -206 41 -386 190 -706 20 -42 52 -113 71 -157 54 -123 68 -154 104
-235 46 -103 49 -200 10 -315 -26 -77 -89 -197 -128 -242 -10 -12 -45 -53 -78
-92 -33 -39 -62 -71 -66 -71 -4 0 -9 -6 -12 -14 -5 -13 29 -14 235 -13 l240 2
27 32 c34 41 113 190 139 263 38 104 54 201 54 315 -1 167 -24 234 -207 600
-166 331 -193 407 -199 546 -7 177 53 364 177 549 53 80 210 243 264 275 72
42 59 45 -205 45 -204 0 -251 -3 -269 -15z"/>
</g>
</svg>
