<svg version="1" xmlns="http://www.w3.org/2000/svg" width="364" height="364" viewBox="0 0 273.000000 273.000000"><path d="M259 2.4c-36.3 10.8-75.1 41-89.5 69.6-3.7 7.3-7.4 17.3-8.1 21.8-.3 2-1 5.7-1.4 8.2-.9 4.7-.5 24.5.6 31.5 2.1 12.9 8.8 29.7 17 42.1 8.6 13.2 29.1 30.8 45.1 38.8 11.6 5.8 40.7 15.6 46.4 15.6 1.9 0 1.9-1.3 1.7-55.7l-.3-55.8h-14.8c-9.1 0-15.1.3-15.5 1-.3.5-.5 16.6-.4 35.8l.3 34.8-3.8-1.6c-10.2-4.3-18.6-11.3-27.4-23-11-14.8-16.2-30-16.3-48-.1-26.3 8.2-45.8 27.2-63.7 8.7-8.2 19.2-15.1 35.3-23.3 9.8-5 12.8-7 13.1-8.7.8-4.6.3-21.1-.7-21.4-.6-.1-4.4.8-8.5 2zM49.3 9.7c-.3.8-.5 3.7-.5 6.6.3 33.6.1 178.8-.2 180.7-.3 1.4-.7 4.5-1 7-1.1 8.5-4.9 17.6-10.1 24.5-6.5 8.7-15.7 14.3-28.2 17.3l-6.8 1.7-.3 11.4c-.1 6.3-.1 12 .2 12.7 1.4 3.8 38.5-9.4 48.8-17.3 5.5-4.3 16.6-16.4 19.6-21.5 3.6-6.1 7.7-17.3 8.7-23.5.3-2.1.8-5 1.1-6.3.9-3.8 1.2-191.3.3-193.1-.7-1.4-3-1.6-16-1.6-11.8.1-15.2.4-15.6 1.4z"/><path d="M121.7 9.2c-2.9 1.5-15.6 19.4-19.6 27.4-7.5 14.9-10 26.3-9.6 42.4.4 17 2.7 25.1 15 52.5 17.4 38.9 18.8 42.6 18.7 48.1-.1 13.2-7.3 27.7-21.2 42.9l-5.5 6 19 .3c10.5.1 19.9 0 21-.2 3.6-1 11-14.2 15.6-27.7 2.9-8.4 3.2-10.7 3.3-21.4.1-15.1-1.7-21.2-12.2-42-19.3-38.1-21.1-42.8-21.6-55.8-.7-15.1 3.9-29.5 14.3-45.4 5.5-8.2 17.4-20.8 23.6-24.9 1.9-1.3 2.3-1.9 1.3-2.4-1.9-1.1-40.3-.9-42.1.2z"/></svg>