<svg id="Ebene_1" data-name="Ebene 1" xmlns="http://www.w3.org/2000/svg" viewBox="0 0 66 66"><defs><style>.cls-1{fill:#fff;}</style></defs><title>hamburger</title><path id="Pfad_4" data-name="Pfad 4" class="cls-1" d="M20,0H46A20,20,0,0,1,66,20V46A20,20,0,0,1,46,66H20A20,20,0,0,1,0,46V20A20,20,0,0,1,20,0Z"/><g id="Hamburger_lines" data-name="Hamburger lines"><path id="Rechteck_2" data-name="Rechteck 2" d="M20,20H48a3,3,0,0,1,3,3h0a3,3,0,0,1-3,3H20a3,3,0,0,1-3-3h0A3,3,0,0,1,20,20Z"/><path id="Rechteck_3" data-name="Rechteck 3" d="M26,31H48a3,3,0,0,1,3,3h0a3,3,0,0,1-3,3H26a3,3,0,0,1-3-3h0A3,3,0,0,1,26,31Z"/><path id="Rechteck_4" data-name="Rechteck 4" d="M20,42H48a3,3,0,0,1,3,3h0a3,3,0,0,1-3,3H20a3,3,0,0,1-3-3h0A3,3,0,0,1,20,42Z"/></g></svg>